<?xml version="1.0" encoding="UTF-8"?>
<!DOCTYPE svg PUBLIC "-//W3C//DTD SVG 1.1//EN" "http://www.w3.org/Graphics/SVG/1.1/DTD/svg11.dtd">
<!-- Creator: CorelDRAW X7 -->
<svg xmlns="http://www.w3.org/2000/svg" xml:space="preserve" width="1.21003E+006px" height="232833px" version="1.1" style="shape-rendering:geometricPrecision; text-rendering:geometricPrecision; image-rendering:optimizeQuality; fill-rule:evenodd; clip-rule:evenodd"
viewBox="0 0 1016762 196482"
 xmlns:xlink="http://www.w3.org/1999/xlink">
 <defs>
  <style type="text/css">
   <![CDATA[
    .fil0 {fill:#1877F2}
   ]]>
  </style>
 </defs>
 <g id="Layer_x0020_1">
  <metadata id="CorelCorpID_0Corel-Layer"/>
  <g id="facebooklogo.svg">
   <path class="fil0" d="M79692 30228c-12365,0 -15113,5497 -15113,17865l0 19234 31603 0 -2749 31603 -28854 0 0 94804 -38473 0 0 -94804 -26106 0 0 -31603 26106 0 0 -19234c0,-31603 12367,-48093 48089,-48093 0,0 0,0 0,0 8245,0 15116,0 21987,1374l0 28854 -16490 0 0 0z"/>
   <path class="fil0" d="M98930 126410c0,-35725 16487,-61831 52212,-61831 19235,0 30228,9619 35721,21983l0 -19235 37099 0 0 126407 -37099 0 0 -19235c-5493,12368 -16486,21983 -35721,21983 -35725,0 -52212,-26105 -52212,-61830l0 -8242 0 0zm38470 8242c0,19238 6871,31602 24731,31602 15116,0 23358,-10990 23358,-28854l0 -13738c0,-17865 -8242,-28855 -23358,-28855 -17860,0 -24731,12365 -24731,31603l0 8242 0 0z"/>
   <path class="fil0" d="M303654 64579c15116,0 28854,2748 37099,8245l-8245 27480c-8242,-4122 -17861,-5497 -26106,-5497 -20609,0 -30228,10994 -30228,31603l0 8245c0,20609 9619,31599 30228,31599 8245,0 17864,-1374 26106,-5493l8245 27480c-8245,5493 -21983,8241 -37099,8241 -45341,0 -65950,-24731 -65950,-63201l0 -5497c0,-38473 20609,-63205 65950,-63205l0 0z"/>
   <path class="fil0" d="M344876 136026l0 -12364c0,-35725 20609,-59083 63205,-59083 38469,0 56334,24732 56334,59083l0 20609 -81070 0c1375,16490 9620,24731 30229,24731 13741,0 30228,-2748 41221,-8241l6871 27480c-10993,4119 -31602,8241 -49466,8241 -48090,0 -67324,-23357 -67324,-60456l0 0 0 0zm38469 -16487l46719 0 0 -4122c0,-13739 -5497,-24732 -21983,-24732 -17865,0 -24736,10993 -24736,28854l0 0z"/>
   <path class="fil0" d="M605937 134652c0,35725 -16490,61830 -52215,61830 -17861,0 -31599,-9615 -37096,-21983l0 19235 -35725 0 0 -189611 38474 -4123 0 85188c5493,-10990 17860,-20609 34347,-20609 35725,0 52215,26106 52215,61831l0 8245 0 -3zm-37099 -8242c0,-17864 -6871,-31603 -26106,-31603 -15116,0 -23357,10994 -23357,28855l0 13738c0,17864 8241,28854 23357,28854 19235,0 26106,-12364 26106,-30225l0 -9619 0 0 0 0z"/>
   <path class="fil0" d="M619675 133281l0 -5497c0,-37099 20609,-63205 63205,-63205 41218,0 63205,26106 63205,63205l0 5497c0,37096 -21987,63201 -63205,63201 -42596,0 -63205,-26105 -63205,-63201zm87937 -8245c0,-16490 -6871,-30229 -24732,-30229 -17864,0 -24731,13739 -24731,30229l0 10990c0,17864 6867,30228 24731,30228 17861,0 24732,-12364 24732,-30228l0 -10990z"/>
   <path class="fil0" d="M758449 133281l0 -5497c0,-37099 20609,-63205 63205,-63205 42593,0 63205,26106 63205,63205l0 5497c0,37096 -20612,63201 -63205,63201 -42596,0 -63205,-26105 -63205,-63201zm87937 -8245c0,-16490 -6871,-30229 -24732,-30229 -17861,0 -24731,13739 -24731,30229l0 10990c0,17864 6870,30228 24731,30228 17861,0 24732,-12364 24732,-30228l0 -10990z"/>
   <polygon class="fil0" points="937071,127784 975541,67327 1015388,67327 975541,130532 1016762,193734 976915,193734 937071,131907 937071,193734 898597,193734 898597,4123 937071,0 "/>
  </g>
 </g>
</svg>
