<?xml version="1.0" encoding="UTF-8"?>
<!DOCTYPE svg PUBLIC "-//W3C//DTD SVG 1.1//EN" "http://www.w3.org/Graphics/SVG/1.1/DTD/svg11.dtd">
<!-- Creator: CorelDRAW X7 -->
<svg xmlns="http://www.w3.org/2000/svg" xml:space="preserve" width="23.2875in" height="7.95419in" version="1.1" style="shape-rendering:geometricPrecision; text-rendering:geometricPrecision; image-rendering:optimizeQuality; fill-rule:evenodd; clip-rule:evenodd"
viewBox="0 0 24143 8246"
 xmlns:xlink="http://www.w3.org/1999/xlink"
 data-name="Layer 1">
 <defs>
  <style type="text/css">
   <![CDATA[
    .fil0 {fill:#1877F2}
   ]]>
  </style>
 </defs>
 <g id="Layer_x0020_1">
  <metadata id="CorelCorpID_0Corel-Layer"/>
  <g id="facebooklogo.svg">
   <path class="fil0" d="M1889 732c-284,0 -366,126 -366,404l0 461 758 0 -76 746 -682 0 0 2261 -910 0 0 -2261 -613 0 0 -746 613 0 0 -448c0,-752 303,-1149 1149,-1149 3,0 7,0 10,0 173,0 348,11 520,32l0 701 -403 -1z"/>
   <path class="fil0" d="M2344 3006c0,-840 398,-1473 1232,-1473 454,0 732,234 865,524l0 -460 872 0 0 3007 -872 0 0 -455c-126,291 -411,518 -865,518 -834,0 -1232,-631 -1232,-1472l0 -189zm909 202c0,449 164,745 588,745 373,0 562,-271 562,-701l0 -301c0,-430 -189,-702 -562,-702 -424,0 -588,297 -588,746l0 213z"/>
   <path class="fil0" d="M7208 1534c353,0 688,76 871,202l-202 645c-189,-91 -396,-138 -606,-139 -493,0 -707,284 -707,770l0 177c0,487 214,771 707,771 210,-1 417,-49 606,-139l202 644c-183,126 -517,202 -871,202 -1068,0 -1554,-575 -1554,-1497l0 -139c0,-922 486,-1497 1554,-1497z"/>
   <path class="fil0" d="M8199 3216l0 -265c0,-853 486,-1414 1478,-1414 935,0 1346,568 1346,1402l0 480 -1915 0c20,411 203,594 707,594 342,0 702,-70 967,-183l166 623c-240,126 -732,221 -1168,221 -1151,0 -1581,-575 -1581,-1458zm910 -392l1099 0 0 -76c0,-328 -133,-589 -530,-589 -411,0 -569,260 -569,664l0 1z"/>
   <path class="fil0" d="M14395 3196c0,840 -404,1472 -1237,1472 -455,0 -771,-227 -897,-518l0 455 -859 0 0 -4518 909 -82 0 2009c133,-265 424,-480 847,-480 834,0 1237,632 1237,1472l0 190zm-910 -209c0,-423 -164,-739 -600,-739 -373,0 -575,265 -575,695l0 316c0,429 202,694 575,694 436,0 600,-315 600,-739l0 -227z"/>
   <path class="fil0" d="M14699 3176l0 -151c0,-866 493,-1491 1497,-1491 1005,0 1498,625 1498,1491l0 151c0,866 -493,1491 -1497,1491 -1005,0 -1498,-625 -1498,-1491zm2085 -214c0,-398 -165,-714 -589,-714 -425,0 -588,316 -588,714l0 278c0,398 164,713 588,713 423,0 589,-315 589,-713l0 -278z"/>
   <path class="fil0" d="M17996 3176l0 -151c0,-866 493,-1491 1497,-1491 1005,0 1498,625 1498,1491l0 151c0,866 -493,1491 -1498,1491 -1004,0 -1497,-625 -1497,-1491zm2085 -214c0,-398 -164,-714 -588,-714 -423,0 -587,316 -587,714l0 278c0,398 164,713 587,713 424,0 588,-315 588,-713l0 -278z"/>
   <polygon class="fil0" points="22241,3031 23138,1597 24105,1597 23164,3082 24143,4604 23176,4604 22241,3131 22241,4604 21331,4604 21331,87 22241,5 "/>
  </g>
  <g id="facebooklogo.svg_0">
   <path class="fil0" d="M1889 4304c-284,0 -366,126 -366,404l0 462 758 0 -76 745 -682 0 0 2261 -910 0 0 -2261 -613 0 0 -745 613 0 0 -449c0,-752 303,-1149 1149,-1149 3,0 7,0 10,0 173,0 348,11 520,32l0 701 -403 -1z"/>
   <path class="fil0" d="M2344 6578c0,-840 398,-1473 1232,-1473 454,0 732,234 865,525l0 -460 872 0 0 3006 -872 0 0 -454c-126,290 -411,518 -865,518 -834,0 -1232,-632 -1232,-1473l0 -189zm909 203c0,448 164,745 588,745 373,0 562,-272 562,-701l0 -302c0,-430 -189,-701 -562,-701 -424,0 -588,297 -588,745l0 214z"/>
   <path class="fil0" d="M7208 5106c353,0 688,76 871,202l-202 645c-189,-90 -396,-138 -606,-139 -493,0 -707,284 -707,771l0 176c0,487 214,771 707,771 210,-1 417,-49 606,-139l202 644c-183,127 -517,203 -871,203 -1068,0 -1554,-575 -1554,-1497l0 -140c0,-922 486,-1497 1554,-1497z"/>
   <path class="fil0" d="M8199 6788l0 -265c0,-853 486,-1414 1478,-1414 935,0 1346,568 1346,1402l0 480 -1915 0c20,411 203,594 707,594 342,0 702,-69 967,-183l166 623c-240,127 -732,221 -1168,221 -1151,0 -1581,-574 -1581,-1458zm910 -392l1099 0 0 -76c0,-328 -133,-589 -530,-589 -411,1 -569,260 -569,664l0 1z"/>
   <path class="fil0" d="M14395 6768c0,840 -404,1473 -1237,1473 -455,0 -771,-228 -897,-518l0 454 -859 0 0 -4517 909 -83 0 2009c133,-265 424,-480 847,-480 834,0 1237,632 1237,1473l0 189zm-910 -209c0,-423 -164,-739 -600,-739 -373,0 -575,265 -575,695l0 316c0,429 202,695 575,695 436,0 600,-316 600,-739l0 -228z"/>
   <path class="fil0" d="M14699 6749l0 -152c0,-865 493,-1491 1497,-1491 1005,0 1498,626 1498,1491l0 152c0,865 -493,1491 -1497,1491 -1005,0 -1498,-626 -1498,-1491zm2085 -215c0,-398 -165,-714 -589,-714 -425,0 -588,316 -588,714l0 278c0,398 164,714 588,714 423,0 589,-316 589,-714l0 -278z"/>
   <path class="fil0" d="M17996 6749l0 -152c0,-865 493,-1491 1497,-1491 1005,0 1498,626 1498,1491l0 152c0,865 -493,1491 -1498,1491 -1004,0 -1497,-626 -1497,-1491zm2085 -215c0,-398 -164,-714 -588,-714 -423,0 -587,316 -587,714l0 278c0,398 164,714 587,714 424,0 588,-316 588,-714l0 -278z"/>
   <polygon class="fil0" points="22241,6604 23138,5170 24105,5170 23164,6654 24143,8176 23176,8176 22241,6704 22241,8176 21331,8176 21331,3660 22241,3577 "/>
  </g>
 </g>
</svg>
